<?xml version="1.0" encoding="UTF-8" standalone="no"?>
<svg width="50px" height="61px" viewBox="0 0 50 61" version="1.1" xmlns="http://www.w3.org/2000/svg" xmlns:xlink="http://www.w3.org/1999/xlink">
    <!-- Generator: Sketch 42 (36781) - http://www.bohemiancoding.com/sketch -->
    <title>Attempt 2</title>
    <desc>Created with Sketch.</desc>
    <defs></defs>
    <g id="Page-1" stroke="none" stroke-width="1" fill="none" fill-rule="evenodd">
        <g id="Attempt-2" fill="#000000">
            <path d="M37.3922716,0.00489993809 C29.4552716,0.395899938 27.0642716,7.41189994 27.1172716,14.3658999 C27.1502716,18.8198999 28.5542716,21.4688999 30.5232716,25.3588999 C33.8852716,31.9998999 37.2482716,38.6388999 40.6102716,45.2788999 C41.0062716,46.0588999 41.4012716,46.8408999 41.7962716,47.6208999 C42.1642716,48.3458999 41.5472716,46.7038999 41.8842716,47.9488999 C42.6732716,50.8578999 41.4712716,53.1018999 38.6022716,54.0868999 C35.9302716,55.0038999 32.4922716,54.6238999 29.6802716,54.6238999 L18.3222716,54.6238999 C15.4132716,54.6238999 11.3382716,54.9488999 9.60827159,52.1518999 C9.15227159,51.4158999 9.18827159,50.3018999 9.32727159,49.4858999 C9.44027159,48.8228999 9.91827159,47.7598999 9.49627159,48.6448999 C12.1702716,43.0318999 14.8442716,37.4168999 17.5182716,31.8028999 C19.3092716,28.0428999 22.8232716,23.2418999 23.4002716,19.0438999 C24.4882716,11.1158999 23.1602716,0.491899938 13.2452716,0.00389993809 C9.86027159,-0.163100062 9.87627159,5.08789994 13.2452716,5.25389994 C17.6652716,5.47189994 18.3462716,9.97789994 18.4922716,13.5888999 C18.5452716,14.9078999 18.4592716,16.2348999 18.3372716,17.5478999 C18.2222716,18.7798999 18.8072716,16.9318999 18.2642716,18.0698999 C15.3812716,24.1248999 12.4972716,30.1778999 9.61427159,36.2318999 C7.86927159,39.8958999 5.36427159,43.7468999 4.34627159,47.7118999 C2.69827159,54.1368999 7.14227159,58.6158999 13.2312716,59.6128999 C19.4832716,60.6368999 26.3272716,59.8718999 32.6332716,59.8718999 C38.6392716,59.8718999 45.8082716,58.6878999 47.1732716,51.7488999 C47.9042716,48.0328999 46.4592716,45.2238999 44.8562716,42.0558999 C41.4732716,35.3758999 38.0902716,28.6958999 34.7082716,22.0158999 C34.0432716,20.7028999 33.3782716,19.3888999 32.7132716,18.0768999 C32.2272716,17.1158999 32.7202716,18.6438999 32.5372716,17.0308999 C32.0742716,12.9278999 31.8082716,5.52889994 37.3942716,5.25389994 C40.7612716,5.08889994 40.7772716,-0.162100062 37.3922716,0.00489993809 L37.3922716,0.00489993809 Z" id="Shape" fill-rule="nonzero"></path>
            <g id="Text" transform="translate(0.000000, 6.000000)" font-size="19" font-family="Arial-BoldMT, Arial" font-weight="bold">
                <text id="d">
                    <tspan x="0" y="17">d</tspan>
                </text>
                <text id="r">
                    <tspan x="22" y="40">r</tspan>
                </text>
                <text id="d">
                    <tspan x="39" y="17">d</tspan>
                </text>
            </g>
        </g>
    </g>
</svg>