<?xml version="1.0" encoding="UTF-8" standalone="no"?>
<svg width="182px" height="101px" viewBox="0 0 182 101" version="1.1" xmlns="http://www.w3.org/2000/svg" xmlns:xlink="http://www.w3.org/1999/xlink">
    <!-- Generator: Sketch 3.7.1 (28215) - http://www.bohemiancoding.com/sketch -->
    <title>purdue logo</title>
    <desc>Created with Sketch.</desc>
    <defs></defs>
    <g id="Page-1" stroke="none" stroke-width="1" fill="none" fill-rule="evenodd">
        <g id="Desktop-HD" transform="translate(-1161.000000, -547.000000)">
            <g id="Header-Image" transform="translate(0.000000, 128.000000)">
                <g id="purdue-logo" transform="translate(1160.000000, 419.000000)">
                    <path d="M179.262,12.132 C172.508,1.915 158.76,0.733 149.006,0.733 L43.118,0.733 L26.195,40.473 L45.051,40.473 L36.787,59.878 L17.899,59.878 L0.97,99.63 L99.54,99.63 L111.371,71.846 L129.236,71.846 C160.777,71.846 171.413,57.082 178.208,41.126 C180.977,34.624 186.13,22.521 179.262,12.132" id="Shape" fill="#000000"></path>
                    <path d="M98.716,30.092 L131.178,30.092 C133.518,30.092 135.225,30.645 135.862,31.609 C136.6,32.723 136.008,34.538 135.59,35.52 C133.76,39.818 129.405,42.488 124.228,42.488 L93.438,42.488 L98.716,30.092 L98.716,30.092 Z M170.604,17.856 C167.563,13.256 160.7,11.113 149.006,11.113 L49.98,11.113 L41.898,30.092 L60.753,30.092 L43.649,70.258 L24.76,70.258 L16.672,89.25 L92.678,89.25 L100.765,70.258 L81.611,70.258 L85.355,61.466 L129.236,61.466 C156.044,61.466 163.179,49.921 168.658,37.059 C171.561,30.244 174.102,23.147 170.604,17.856 L170.604,17.856 Z" id="Shape" fill="#A9B7B5"></path>
                    <path d="M124.227,44.451 L90.467,44.451 L97.418,28.128 L131.178,28.128 C137.153,28.128 139.563,31.202 137.397,36.29 C135.229,41.377 130.202,44.451 124.227,44.451 L124.227,44.451 Z M149.006,13.077 L51.278,13.077 L44.868,28.128 L63.724,28.128 L44.947,72.223 L26.058,72.223 L19.643,87.286 L91.38,87.286 L97.795,72.223 L78.641,72.223 L84.057,59.502 L129.236,59.502 C155.129,59.502 161.636,48.532 166.851,36.29 C172.064,24.047 174.898,13.077 149.006,13.077 L149.006,13.077 Z" id="Shape" fill="#B1946C"></path>
                    <path d="M109.893,94.424 L109.893,95.257 L108.1,95.257 L108.1,100.032 L106.973,100.032 L106.973,95.257 L105.18,95.257 L105.18,94.424 L109.893,94.424 L109.893,94.424 Z M112.686,94.424 L114.272,98.438 L115.741,94.424 L117.305,94.424 L117.305,100.032 L116.274,100.032 L116.274,95.404 L114.552,100.032 L113.968,100.032 L112.155,95.404 L112.155,100.032 L111.155,100.032 L111.155,94.424 L112.686,94.424 L112.686,94.424 Z" id="Shape" fill="#000000"></path>
                </g>
            </g>
        </g>
    </g>
</svg>